<svg xmlns="http://www.w3.org/2000/svg" width="100" height="100" viewBox="0 0 100 100">
  <g id="Raggruppa_2766" data-name="Raggruppa 2766" transform="translate(-0.137 0.394)">
    <rect id="Rettangolo_618" data-name="Rettangolo 618" width="100" height="100" transform="translate(0.137 -0.394)" fill="#fff" opacity="0"/>
    <g id="Raggruppa_825" data-name="Raggruppa 825" transform="translate(9.324 24.557)">
      <rect id="Rettangolo_617" data-name="Rettangolo 617" width="37.726" height="60.362" rx="3" transform="translate(71.461 4.238) rotate(90)" fill="none" stroke="#fff" stroke-linecap="round" stroke-linejoin="round" stroke-width="2"/>
      <path id="Tracciato_584" data-name="Tracciato 584" d="M3018.868,5384.914h62.1a3.729,3.729,0,0,1,3.736,3.7v38.807a3.729,3.729,0,0,1-3.736,3.7h-62.1a3.729,3.729,0,0,1-3.736-3.7v-38.807A3.729,3.729,0,0,1,3018.868,5384.914Z" transform="translate(-3008.64 -5384.914)" fill="none" stroke="#fff" stroke-linecap="round" stroke-linejoin="round" stroke-width="2"/>
      <path id="Tracciato_585" data-name="Tracciato 585" d="M3033.034,5424.026H3009.64l.158,4.81h80.65l.157-4.81h-22.891" transform="translate(-3009.64 -5377.785)" fill="none" stroke="#fff" stroke-linecap="round" stroke-linejoin="round" stroke-width="2"/>
    </g>
  </g>
</svg>
