<svg xmlns="http://www.w3.org/2000/svg" width="100" height="100" viewBox="0 0 100 100">
  <g id="Raggruppa_2765" data-name="Raggruppa 2765" transform="translate(-0.394 0.394)">
    <rect id="Rettangolo_620" data-name="Rettangolo 620" width="100" height="100" transform="translate(0.394 -0.394)" fill="#fff" opacity="0"/>
    <g id="Raggruppa_816" data-name="Raggruppa 816" transform="translate(29.796 24.531)">
      <rect id="Rettangolo_230" data-name="Rettangolo 230" width="40.323" height="51.051" transform="translate(0 0)" fill="none" stroke="#fff" stroke-linecap="round" stroke-linejoin="round" stroke-width="2"/>
      <line id="Linea_166" data-name="Linea 166" x2="4.532" transform="translate(35.791 10.364)" fill="none" stroke="#fff" stroke-linecap="round" stroke-linejoin="round" stroke-width="2"/>
      <line id="Linea_167" data-name="Linea 167" x2="27.56" transform="translate(0 10.364)" fill="none" stroke="#fff" stroke-linecap="round" stroke-linejoin="round" stroke-width="2"/>
      <ellipse id="Ellisse_41" data-name="Ellisse 41" cx="14.243" cy="14.243" rx="14.243" ry="14.243" transform="translate(5.919 16.17)" fill="none" stroke="#fff" stroke-linecap="round" stroke-linejoin="round" stroke-width="2"/>
      <path id="Tracciato_283" data-name="Tracciato 283" d="M437.563,3634.886" transform="translate(-408.285 -3604.474)" fill="none" stroke="#fff" stroke-linecap="round" stroke-linejoin="round" stroke-width="2"/>
      <path id="Tracciato_284" data-name="Tracciato 284" d="M435.636,3633.922a9.117,9.117,0,1,1-9.117-9.116" transform="translate(-406.358 -3603.51)" fill="none" stroke="#fff" stroke-linecap="round" stroke-linejoin="round" stroke-width="2"/>
      <line id="Linea_168" data-name="Linea 168" y2="10.364" transform="translate(12.393 0)" fill="none" stroke="#fff" stroke-linecap="round" stroke-linejoin="round" stroke-width="2"/>
      <path id="Tracciato_285" data-name="Tracciato 285" d="M427.466,3606.733a2.424,2.424,0,1,1-2.424-2.424A2.424,2.424,0,0,1,427.466,3606.733Z" transform="translate(-406.856 -3601.551)" fill="none" stroke="#fff" stroke-linecap="round" stroke-linejoin="round" stroke-width="2"/>
      <path id="Tracciato_286" data-name="Tracciato 286" d="M436.707,3606.733a2.424,2.424,0,1,1-2.425-2.424A2.425,2.425,0,0,1,436.707,3606.733Z" transform="translate(-407.74 -3601.551)" fill="none" stroke="#fff" stroke-linecap="round" stroke-linejoin="round" stroke-width="2"/>
      <path id="Tracciato_287" data-name="Tracciato 287" d="M445.947,3606.733a2.424,2.424,0,1,1-2.424-2.424A2.425,2.425,0,0,1,445.947,3606.733Z" transform="translate(-408.623 -3601.551)" fill="none" stroke="#fff" stroke-linecap="round" stroke-linejoin="round" stroke-width="2"/>
      <line id="Linea_169" data-name="Linea 169" x2="6.289" transform="translate(3.144 3.037)" fill="none" stroke="#fff" stroke-linecap="round" stroke-linejoin="round" stroke-width="2"/>
      <line id="Linea_170" data-name="Linea 170" x2="6.289" transform="translate(3.144 6.182)" fill="none" stroke="#fff" stroke-linecap="round" stroke-linejoin="round" stroke-width="2"/>
    </g>
  </g>
</svg>
