<svg xmlns="http://www.w3.org/2000/svg" width="46.205" height="46.589" viewBox="0 0 46.205 46.589">
  <g id="Raggruppa_2910" data-name="Raggruppa 2910" transform="translate(-936.905 -1793.381)">
    <circle id="Ellisse_43" data-name="Ellisse 43" cx="1.873" cy="1.873" r="1.873" transform="translate(942.266 1806.13) rotate(-14)" fill="none" stroke="#0b4966" stroke-linecap="round" stroke-linejoin="round" stroke-width="1"/>
    <path id="Tracciato_2484" data-name="Tracciato 2484" d="M4.057.109l10.2,2.425a4.976,4.976,0,0,1,2.367,1.322l19.99,19.991a1.538,1.538,0,0,1-.123,2.159L25.605,36.891a1.539,1.539,0,0,1-2.159.123L3.531,17.1a4.974,4.974,0,0,1-1.364-2.557L.075,3.9A3.157,3.157,0,0,1,4.057.109Z" transform="translate(937.525 1802.952) rotate(-14)" fill="none" stroke="#0b4966" stroke-linecap="round" stroke-linejoin="round" stroke-width="1"/>
  </g>
</svg>
