<svg xmlns="http://www.w3.org/2000/svg" width="37.842" height="46.305" viewBox="0 0 37.842 46.305">
  <g id="Raggruppa_3773" data-name="Raggruppa 3773" transform="translate(0 0)">
    <g id="Raggruppa_3772" data-name="Raggruppa 3772" transform="translate(0 0)">
      <g id="Raggruppa_2322" data-name="Raggruppa 2322" transform="translate(0 0)">
        <g id="Raggruppa_2321" data-name="Raggruppa 2321">
          <path id="Tracciato_2542" data-name="Tracciato 2542" d="M1275.121-320.059a6.419,6.419,0,0,0-2.986-2,28.186,28.186,0,0,0-4.406-1.136c-.81-.163-1.644-.308-2.45-.448l-.754-.132c-.107-.019-.229-.03-.372-.044l-.248-.025-1.684-.187,1.031-1.345.329-.426c.23-.3.447-.579.659-.865q.517-.7,1.036-1.394c.973-1.307,1.979-2.657,2.942-4,.828-1.153,1.7-2.4,2.509-3.716a18.487,18.487,0,0,0,2.247-5.41,11,11,0,0,0,.218-3.565,13.12,13.12,0,0,0-2.547-6.461,19.742,19.742,0,0,0-3.483-3.686,15.793,15.793,0,0,0-6.993-3.32,15.674,15.674,0,0,0-1.554-.215c-.267-.028-.533-.056-.8-.09-.07-.009-.139-.022-.207-.035h-1.38l-.3.034-.886.1a18.452,18.452,0,0,0-3.307.734,15.432,15.432,0,0,0-5.389,2.982,16.906,16.906,0,0,0-5.159,7.308,11.139,11.139,0,0,0-.611,4.394,16.777,16.777,0,0,0,2.459,7.571,74.893,74.893,0,0,0,5.314,7.764c.412.541.827,1.066,1.266,1.623.2.255.4.51.607.77l1.023,1.306-1.987.279c-.239.033-.473.065-.707.1l-.941.14c-.848.126-1.726.256-2.583.4a16.653,16.653,0,0,0-3.5.938,6.72,6.72,0,0,0-2.676,1.71,3.147,3.147,0,0,0-.844,2.514,3.671,3.671,0,0,0,2.025,2.875,12.508,12.508,0,0,0,3.264,1.265l.291.077c1.023.27,2.081.55,3.121.767a18.249,18.249,0,0,0,2.46.349c1.225.085,2.479.142,3.691.2q.807.036,1.614.076a1.448,1.448,0,0,1,.224.03h3.664a2.375,2.375,0,0,1,.287-.033c.488-.023.977-.042,1.466-.062,1.01-.04,2.055-.081,3.072-.157a33.35,33.35,0,0,0,7.008-1.135,15.6,15.6,0,0,0,3.815-1.572,3.659,3.659,0,0,0,1.662-1.98A2.927,2.927,0,0,0,1275.121-320.059Zm-25.737-8.881a65.712,65.712,0,0,1-5.084-7.476,16.548,16.548,0,0,1-1.944-5.087,10.542,10.542,0,0,1,.967-6.888,16.249,16.249,0,0,1,3.657-4.768,14.645,14.645,0,0,1,7.389-3.561,13.838,13.838,0,0,1,3.855-.2,14.4,14.4,0,0,1,7.572,2.958,17.253,17.253,0,0,1,4.269,4.739,11,11,0,0,1,1.566,4.57,10.525,10.525,0,0,1-.7,4.771,22.283,22.283,0,0,1-3.008,5.492q-.6.815-1.194,1.631c-1.495,2.042-3.04,4.153-4.592,6.21-.8,1.06-1.658,2.089-2.488,3.084q-.395.474-.788.948c-.291.352-.585.678-.9,1.023-.139.154-.279.31-.422.469l-.7.793-.717-.781c-.24-.262-.482-.52-.723-.776-.529-.565-1.077-1.149-1.59-1.758l-.2-.233C1252.209-325.449,1250.753-327.178,1249.384-328.94Zm24.394,11.891a4.673,4.673,0,0,1-1.062.761,18.489,18.489,0,0,1-4.623,1.55,39.2,39.2,0,0,1-4.548.613c-2.349.2-4.706.293-7.815.293h-.428l-.981-.031c-.966-.03-2.17-.068-3.376-.125a28.516,28.516,0,0,1-7.061-1.237l-.372-.114a13.51,13.51,0,0,1-2.448-.925,5.024,5.024,0,0,1-.758-.5,1.781,1.781,0,0,1-.7-1.2,1.783,1.783,0,0,1,.411-1.328,4.239,4.239,0,0,1,1.727-1.2,14.9,14.9,0,0,1,3.7-1.047c1.186-.2,2.458-.384,4-.589.84-.111,1.688-.181,2.508-.249l.052,0a1.424,1.424,0,0,1,1.094.434c.849.876,1.742,1.8,2.709,2.815a1.535,1.535,0,0,0,2.254-.032l.017-.019c.811-.918,1.62-1.864,2.333-2.7a1.5,1.5,0,0,1,1.255-.567,27.237,27.237,0,0,1,4.161.485c1.347.259,2.757.564,4.311.931a8.255,8.255,0,0,1,2.99,1.252,4.128,4.128,0,0,1,.783.745A1.375,1.375,0,0,1,1273.778-317.049Z" transform="translate(-1238 358.556)" fill="#00f1a2"/>
        </g>
      </g>
      <g id="Raggruppa_2324" data-name="Raggruppa 2324" transform="translate(13.413 9.604)">
        <g id="Raggruppa_2323" data-name="Raggruppa 2323" transform="translate(0 0)">
          <path id="Tracciato_2543" data-name="Tracciato 2543" d="M1286.392-328.989a5.469,5.469,0,0,0-3.893-1.649h-.034a5.456,5.456,0,0,0-5.517,5.479,5.49,5.49,0,0,0,5.2,5.538,5.485,5.485,0,0,0,4.111-1.51,5.476,5.476,0,0,0,1.7-3.968v-.016A5.411,5.411,0,0,0,1286.392-328.989Zm-3.721,7.791h0q-.1,0-.2,0a3.977,3.977,0,0,1-2.716-1.073,3.944,3.944,0,0,1-1.237-2.858,3.856,3.856,0,0,1,1.14-2.755,3.931,3.931,0,0,1,2.762-1.176h.008a3.933,3.933,0,0,1,2.836,1.184,3.865,3.865,0,0,1,1.112,2.753A3.929,3.929,0,0,1,1282.671-321.2Z" transform="translate(-1276.948 330.638)" fill="#00f1a2"/>
        </g>
      </g>
    </g>
  </g>
</svg>
