<?xml version="1.0" encoding="utf-8"?>
<!-- Generator: Adobe Illustrator 26.0.3, SVG Export Plug-In . SVG Version: 6.00 Build 0)  -->
<svg version="1.1" id="Livello_1" xmlns="http://www.w3.org/2000/svg" xmlns:xlink="http://www.w3.org/1999/xlink" x="0px" y="0px"
	 viewBox="0 0 818 195.2" style="enable-background:new 0 0 818 195.2;" xml:space="preserve">
<style type="text/css">
	.st0{fill:#0B4966;}
</style>
<g id="Livello_1_00000114753957941310747720000010750581703006040974_">
	<g>
		<path class="st0" d="M74.6,195c-0.2,0-0.5,0-0.7,0c-19.4-2.5-37.5-13.3-50.9-30.4c-1.9-2.4-1.5-5.9,1-7.8c2.4-1.9,5.9-1.5,7.8,1
			c11.5,14.8,27,24.1,43.5,26.2c3,0.4,5.2,3.2,4.8,6.2C79.7,192.9,77.3,195,74.6,195z"/>
	</g>
	<g>
		<path class="st0" d="M125.7,179.3c-1.6,0-3.1-0.7-4.2-2c-2-2.3-1.7-5.8,0.6-7.8c9-7.7,16.4-17.4,21.4-28.2c1.3-2.8,4.6-4,7.4-2.7
			c2.8,1.3,4,4.6,2.7,7.4c-5.6,12.2-14,23.3-24.3,32C128.3,178.8,127,179.3,125.7,179.3z"/>
	</g>
	<g>
		<path class="st0" d="M82.7,166.1c-31.5,0-57.1-30.4-57.1-67.8c0-5.1,0.5-10.3,1.5-15.4c0.6-3,3.5-5,6.5-4.4c3,0.6,5,3.5,4.4,6.5
			c-0.8,4.3-1.3,8.8-1.3,13.2c0,31.2,20.6,56.7,46,56.7c9.3-0.1,18.4-3.5,25.5-9.5c2.3-2,5.8-1.7,7.8,0.6c2,2.3,1.7,5.8-0.6,7.8
			C106.2,161.7,94.6,166,82.7,166.1z"/>
	</g>
	<g>
		<path class="st0" d="M126.5,136.5c-0.8,0-1.7-0.2-2.5-0.6c-2.7-1.4-3.8-4.7-2.5-7.5c4.7-9.3,7.1-19.7,7.1-30.1
			c0-1.2,0-2.4-0.1-3.7c-0.2-3.1,2.2-5.7,5.3-5.8c3.1-0.2,5.7,2.2,5.8,5.3c0.1,1.5,0.1,2.9,0.1,4.3c0.1,12.1-2.8,24.3-8.2,35.1
			C130.4,135.4,128.5,136.5,126.5,136.5z"/>
	</g>
	<g>
		<path class="st0" d="M60.3,123.9c-1.6,0-3.2-0.8-4.1-2.2c-4.5-7-6.9-15-6.8-23.3c-0.1-9.2,2.9-18.2,8.4-25.5
			c1.6-2.2,4.7-2.6,6.9-1c2.2,1.6,2.6,4.7,1,6.9c-4.2,5.6-6.5,12.5-6.4,19.5c0,0,0,0.1,0,0.1c-0.1,6.4,1.7,12.5,5.2,17.9
			c1.5,2.3,0.8,5.3-1.5,6.8C62.1,123.7,61.2,123.9,60.3,123.9z"/>
	</g>
	<g>
		<path class="st0" d="M82.6,137.4c-1.2,0-2.5-0.1-3.7-0.2c-2.7-0.4-4.6-2.8-4.2-5.6c0.4-2.7,2.8-4.6,5.6-4.2
			c0.8,0.1,1.6,0.2,2.4,0.2c7.7,0,14.7-4.9,18.8-13.1c1.2-2.4,4.2-3.4,6.6-2.2c2.4,1.2,3.4,4.2,2.2,6.6
			C104.6,130.3,94,137.4,82.6,137.4z"/>
	</g>
	<g>
		<path class="st0" d="M110.9,99.3c-2.5,0-4.7-1.9-4.9-4.5c-0.6-6.5-3.3-12.8-7.7-17.7c-1.8-2-1.7-5.1,0.3-7c2-1.8,5.1-1.7,7,0.3
			c5.8,6.5,9.5,14.8,10.3,23.4c0.2,2.7-1.8,5.1-4.5,5.4C111.2,99.3,111.1,99.3,110.9,99.3z"/>
	</g>
	<g>
		<path class="st0" d="M9.6,129.7c-3.2,0-5.9-2.2-6.6-5.3c-2-8.5-3-17.3-3-26C0,44.1,37.1,0,82.6,0s82.6,44.1,82.6,98.4
			c0,8.6-0.9,17.3-2.8,25.7c-0.8,3.7-4.5,6-8.1,5.1s-6-4.5-5.1-8.1c1.7-7.4,2.5-15.1,2.5-22.7c0-46.7-31-84.8-69-84.8
			s-69,38-69,84.8c0,7.7,0.9,15.5,2.6,23c0.8,3.7-1.4,7.3-5.1,8.1c0,0,0,0,0,0C10.6,129.6,10.1,129.7,9.6,129.7z M82.6,115.8
			c-3.8,0-6.8-3-6.8-6.8V61.2c0-3.8,3-6.8,6.8-6.8c3.8,0,6.8,3,6.8,6.8V109C89.4,112.8,86.4,115.8,82.6,115.8L82.6,115.8L82.6,115.8
			z M125.4,70.4c-2.5,0-4.7-1.3-5.9-3.5c-8.4-15-22.1-24-36.8-24s-28.4,9-36.8,24c-1.8,3.3-6,4.4-9.3,2.6s-4.4-6-2.6-9.3l0,0
			c10.8-19.4,29-30.9,48.6-30.9s37.8,11.5,48.6,30.9c1.8,3.3,0.7,7.4-2.6,9.3C127.6,70.1,126.5,70.4,125.4,70.4L125.4,70.4z"/>
	</g>
	<g>
		<path class="st0" d="M226.7,156.1c0,6.5-4.6,11-10.7,11c-4.1,0.1-7.8-2.3-9.4-6v14h-1.4v-30h1.3v6c1.6-3.8,5.3-6.2,9.4-6.1
			C222.1,145,226.7,149.6,226.7,156.1z M225.3,156.1c0-5.8-4-9.8-9.3-9.8s-9.3,4-9.3,9.8s4,9.8,9.3,9.8S225.3,161.9,225.3,156.1
			L225.3,156.1z"/>
	</g>
	<g>
		<path class="st0" d="M255.6,154.2V167h-1.4v-12.8c0-5.2-2.8-8-7.5-8c-5.5,0-8.8,3.5-8.8,8.9V167h-1.4v-31.2h1.4v14.6
			c1.4-3.3,4.5-5.4,8.9-5.4C252.2,145,255.6,148.2,255.6,154.2z"/>
	</g>
	<g>
		<path class="st0" d="M286.3,145.2v19.7c0,7.2-3.1,10.4-9.4,10.4c-3.7,0-7.1-1.3-9-3.5l0.8-1c2.1,2.2,5.1,3.4,8.1,3.3
			c5.5,0,8-2.8,8-9v-4.2c-1.4,3.3-4.4,5.3-8.5,5.3c-5.5,0-9-3.2-9-9.1v-12h1.4V157c0,5.2,2.8,8,7.7,8c5.3,0,8.5-3.6,8.5-9v-10.8
			H286.3z"/>
	</g>
	<g>
		<path class="st0" d="M317.8,145.2v19.7c0,7.2-3.5,10.4-10.3,10.4c-4,0-7.7-1.3-9.8-3.5l0.8-1c2.5,2.2,5.7,3.4,9,3.3
			c6.1,0,9-2.8,9-9v-4.6c-1.7,3.7-5.5,5.9-9.5,5.8c-6.2,0-10.8-4.4-10.8-10.7S300.8,145,307,145c4.1-0.1,7.8,2.2,9.5,5.8v-5.7
			L317.8,145.2z M316.5,155.6c0-5.5-4-9.3-9.5-9.3s-9.5,3.8-9.5,9.3c0,5.2,4.3,9.5,9.5,9.5S316.5,160.8,316.5,155.6L316.5,155.6z"/>
	</g>
	<g>
		<path class="st0" d="M329.4,138.1c0-0.8,0.6-1.4,1.3-1.4c0.8,0,1.4,0.6,1.4,1.3c0,0.8-0.6,1.4-1.3,1.4c0,0,0,0,0,0
			C330.1,139.4,329.5,138.8,329.4,138.1z M330.1,145.2h1.4V167h-1.4V145.2z"/>
	</g>
	<g>
		<path class="st0" d="M353.5,165.6c-1.2,1-2.8,1.6-4.4,1.5c-3.6,0-5.6-2.2-5.6-5.6v-21.2h1.4v4.8h7.2v1.2H345v14.9
			c0,2.9,1.5,4.6,4.3,4.6c1.3,0,2.6-0.4,3.5-1.3L353.5,165.6z"/>
	</g>
	<g>
		<path class="st0" d="M380.8,145.2V167h-1.3v-6c-1.6,3.8-5.3,6.2-9.4,6.1c-6.1,0-10.7-4.5-10.7-11.1s4.7-11,10.7-11
			c4.1-0.1,7.8,2.3,9.4,6v-5.8L380.8,145.2z M379.4,156.1c0-5.8-4-9.8-9.3-9.8s-9.3,4-9.3,9.8s4,9.8,9.3,9.8
			S379.4,161.9,379.4,156.1z"/>
	</g>
	<g>
		<path class="st0" d="M393.1,161.6v-25.8h1.4v25.5c0,2.9,1.3,4.6,4.1,4.6c0.7,0,1.4-0.1,2.1-0.4l0.1,1.2c-0.7,0.3-1.5,0.4-2.3,0.4
			C394.9,167.1,393.1,164.9,393.1,161.6z"/>
	</g>
	<g>
		<path class="st0" d="M443.3,156.1c0,6.5-4.6,11-10.7,11c-4.1,0.1-7.8-2.3-9.4-6v14h-1.4v-30h1.3v6c1.6-3.8,5.3-6.2,9.4-6.1
			C438.7,145,443.3,149.6,443.3,156.1z M441.9,156.1c0-5.8-4-9.8-9.3-9.8s-9.3,4-9.3,9.8s4,9.8,9.3,9.8S441.9,161.9,441.9,156.1z"/>
	</g>
	<g>
		<path class="st0" d="M453.1,161.6v-25.8h1.4v25.5c0,2.9,1.3,4.6,4.1,4.6c0.7,0,1.4-0.1,2.1-0.4l0.1,1.2c-0.7,0.3-1.5,0.4-2.3,0.4
			C454.9,167.1,453.1,164.9,453.1,161.6z"/>
	</g>
	<g>
		<path class="st0" d="M486.8,145.2V167h-1.3v-6c-1.6,3.8-5.3,6.2-9.4,6.1c-6.1,0-10.7-4.5-10.7-11.1s4.7-11,10.7-11
			c4.1-0.1,7.8,2.3,9.4,6v-5.8L486.8,145.2z M485.4,156.1c0-5.8-4-9.8-9.3-9.8s-9.3,4-9.3,9.8s4,9.8,9.3,9.8
			C481.4,165.9,485.4,161.9,485.4,156.1z"/>
	</g>
	<g>
		<path class="st0" d="M496.6,156.1c0-6.5,4.6-11.1,10.8-11.1c3.1-0.1,6.1,1.3,8.1,3.8l-1,0.9c-1.6-2.2-4.3-3.4-7-3.3
			c-5.4,0-9.5,4-9.5,9.8s4,9.8,9.5,9.8c2.7,0.1,5.4-1.1,7-3.3l1,0.8c-1.9,2.5-4.9,3.9-8.1,3.7C501.2,167.1,496.6,162.6,496.6,156.1z
			"/>
	</g>
	<g>
		<path class="st0" d="M540.6,162.6l0.8,0.9c-2,2.4-5,3.7-8.2,3.6c-5.9,0.2-10.8-4.4-11.1-10.3c0-0.3,0-0.5,0-0.8
			c0-6.5,4.4-11.1,10.5-11.1c5.7,0,9.7,4.5,10,9.9l-18.8,3.8c1,4.4,5,7.4,9.4,7.2C536.1,166,538.8,164.8,540.6,162.6z M523.6,155.9
			c0,0.5,0,1.1,0.1,1.6l17.7-3.5c-0.4-4.4-4.2-7.8-8.6-7.8C527.3,146.3,523.6,150.3,523.6,155.9L523.6,155.9z"/>
	</g>
	<g>
		<path class="st0" d="M549.2,164.2l0.7-1.1c2.3,1.8,5.1,2.8,8,2.8c4.9,0,6.9-1.8,6.9-4.5c0-6.9-14.8-2-14.8-10.6
			c0-3.1,2.5-5.8,8-5.8c2.6,0,5.2,0.7,7.3,2.2l-0.7,1.1c-1.9-1.4-4.3-2.1-6.6-2.1c-4.6,0-6.5,2-6.5,4.5c0,7.1,14.7,2.3,14.7,10.6
			c0,3.4-2.8,5.8-8.3,5.8C554.2,167.1,550.9,165.9,549.2,164.2z"/>
	</g>
	<g>
		<path class="st0" d="M590.3,141.5v3.7h7.2v1.2h-7.2V167h-1.4v-25.7c0-3.4,2-5.6,5.6-5.6c1.6-0.1,3.1,0.5,4.3,1.5l-0.7,1.1
			c-1-0.9-2.2-1.3-3.5-1.3C591.7,136.9,590.3,138.5,590.3,141.5z"/>
	</g>
	<g>
		<path class="st0" d="M601.9,156.1c0-6.5,4.6-11.1,10.7-11.1s10.7,4.6,10.7,11.1s-4.5,11.1-10.7,11.1S601.9,162.5,601.9,156.1z
			 M622,156.1c0-5.8-4-9.8-9.3-9.8s-9.3,4-9.3,9.8s4,9.8,9.3,9.8S622,161.9,622,156.1L622,156.1z"/>
	</g>
	<g>
		<path class="st0" d="M643,145v1.4h-0.4c-5.1,0-8.1,3.4-8.1,9V167h-1.4v-21.8h1.3v5.3C635.8,147,638.7,145,643,145z"/>
	</g>
	<g>
		<path class="st0" d="M687.5,156.1c0,6.5-4.6,11-10.7,11c-4.1,0.1-7.8-2.3-9.4-6v14H666v-30h1.3v6c1.6-3.8,5.3-6.2,9.4-6.1
			C682.9,145,687.5,149.6,687.5,156.1z M686.1,156.1c0-5.8-4-9.8-9.3-9.8s-9.3,4-9.3,9.8s4,9.8,9.3,9.8S686.1,161.9,686.1,156.1z"/>
	</g>
	<g>
		<path class="st0" d="M713.2,162.6l0.8,0.9c-2,2.4-5,3.7-8.2,3.6c-5.9,0.2-10.8-4.4-11.1-10.3c0-0.3,0-0.5,0-0.8
			c0-6.5,4.4-11.1,10.5-11.1c5.7,0,9.7,4.5,10,9.9l-18.8,3.8c1,4.4,5,7.4,9.4,7.2C708.7,166,711.4,164.8,713.2,162.6z M696.2,155.9
			c0,0.5,0,1.1,0.1,1.6l17.7-3.5c-0.4-4.4-4.2-7.8-8.6-7.8C700,146.3,696.2,150.3,696.2,155.9L696.2,155.9z"/>
	</g>
	<g>
		<path class="st0" d="M722.7,156.1c0-6.5,4.6-11.1,10.7-11.1s10.7,4.6,10.7,11.1s-4.5,11.1-10.7,11.1S722.7,162.5,722.7,156.1z
			 M742.7,156.1c0-5.8-4-9.8-9.3-9.8s-9.3,4-9.3,9.8s4,9.8,9.3,9.8S742.7,161.9,742.7,156.1z"/>
	</g>
	<g>
		<path class="st0" d="M775.4,156.1c0,6.5-4.6,11-10.7,11c-4.1,0.1-7.8-2.3-9.4-6v14h-1.4v-30h1.3v6c1.6-3.8,5.3-6.2,9.4-6.1
			C770.8,145,775.4,149.6,775.4,156.1z M774,156.1c0-5.8-4-9.8-9.3-9.8s-9.3,4-9.3,9.8s4,9.8,9.3,9.8S774,161.9,774,156.1L774,156.1
			z"/>
	</g>
	<g>
		<path class="st0" d="M785.2,161.6v-25.8h1.4v25.5c0,2.9,1.3,4.6,4.1,4.6c0.7,0,1.4-0.1,2.1-0.4l0.1,1.2c-0.7,0.3-1.5,0.4-2.3,0.4
			C787.1,167.1,785.2,164.9,785.2,161.6z"/>
	</g>
	<g>
		<path class="st0" d="M815.8,162.6l0.8,0.9c-2,2.4-5,3.7-8.2,3.6c-5.9,0.2-10.9-4.4-11.1-10.3c0-0.3,0-0.5,0-0.8
			c0-6.5,4.4-11.1,10.5-11.1c5.7,0,9.7,4.5,10.1,9.9l-18.8,3.8c1,4.4,5,7.4,9.4,7.2C811.4,166,814,164.8,815.8,162.6z M798.8,155.9
			c0,0.5,0,1.1,0.1,1.6l17.7-3.5c-0.4-4.4-4.2-7.8-8.6-7.8C802.6,146.3,798.8,150.3,798.8,155.9L798.8,155.9z"/>
	</g>
	<g>
		<path class="st0" d="M320.1,123.6c-11.8,0-21.3-3.9-28.7-11.8c-7.4-7.9-11.1-17.8-11.1-29.7c0-11.3,3.6-21.1,10.7-29.3
			c7.2-8.2,16.3-12.3,27.4-12.2c11.6,0,20.8,3.8,27.8,11.3s10.4,17.6,10.4,30.1v0.2l0,0c-0.1,1.5-1.3,2.6-2.8,2.6H298
			c-1.5,0-2.8,1.2-2.8,2.8c0,0.1,0,0.2,0,0.4c0.6,5.9,3.3,11.4,7.6,15.5c4.5,4.5,10.6,6.9,17,6.8c9.6,0,16.3-3.7,20.2-11.1
			c0.7-1.3,2.2-1.8,3.5-1.3l7.9,3.3c1.4,0.6,2.1,2.2,1.5,3.6c0,0.1-0.1,0.1-0.1,0.2c-2.7,5-6.6,9.3-11.3,12.5
			C335.8,121.5,328.6,123.6,320.1,123.6z M337.8,72.7c1.5,0,2.8-1.2,2.8-2.8c0-0.2,0-0.5-0.1-0.7c-1.1-3.5-3-6.6-5.5-9.2
			c-3.8-4-9.4-6-16.8-6c-5.2-0.1-10.2,1.7-14.1,5.1c-3.1,2.7-5.5,6-6.9,9.8c-0.6,1.4,0.1,3,1.5,3.6c0.3,0.1,0.7,0.2,1,0.2
			L337.8,72.7z"/>
	</g>
	<g>
		<path class="st0" d="M406.9,68l-5.6-5.6c-1.1-1.1-2.8-1.1-3.9,0c-0.1,0.1-0.2,0.3-0.3,0.4l-2.9,4.4c-0.8,1.3-2.6,1.6-3.8,0.8
			c-0.3-0.2-0.5-0.4-0.7-0.7l-16.1-23c-0.5-0.7-1.4-1.2-2.3-1.2h-9.8c-1.5,0-2.8,1.2-2.8,2.8c0,0.6,0.2,1.1,0.5,1.6l22.7,32.4
			c0.7,1,0.7,2.2,0,3.2l-23.4,33.7c-0.9,1.2-0.6,3,0.7,3.8c0.5,0.3,1,0.5,1.6,0.5h10.4c0.9,0,1.8-0.5,2.3-1.2l15.8-24.1
			c0.8-1.3,2.6-1.6,3.8-0.8c0.3,0.2,0.6,0.5,0.8,0.8l16.1,24.1c0.5,0.8,1.4,1.2,2.3,1.2h10.4c1.5,0,2.8-1.2,2.8-2.8
			c0-0.6-0.2-1.1-0.5-1.6L401.3,83c-0.7-1-0.7-2.2,0-3.2l5.9-8.3C407.9,70.5,407.8,69,406.9,68z"/>
	</g>
	<g>
		<path class="st0" d="M519.7,83.7c0,8.5,2.6,13.6,7.6,18.8c9.3,9.9,24.9,10.3,34.8,1c0.3-0.3,0.7-0.6,1-1c5-5.1,7.6-12,7.6-20.4
			c0-8.5-2.5-15.3-7.6-20.5c-9.3-9.9-24.9-10.3-34.8-1c-0.3,0.3-0.7,0.6-1,1c-1.9,1.9-3.4,4.1-4.6,6.5c-0.5,0.9-1.4,1.5-2.5,1.5
			h-9.8c-1.5,0-2.8-1.2-2.8-2.7c0-0.3,0.1-0.6,0.2-0.9c1.9-5.1,4.8-9.7,8.5-13.6c7.5-7.9,17.1-11.9,28.8-11.9
			c11.7,0,21.2,4,28.7,11.9c7.5,7.9,11.3,17.8,11.3,29.7c0,11.9-3.8,21.8-11.3,29.6c-7.5,7.9-17.1,11.8-28.8,11.8s-21.2-4-28.8-11.8
			c-1.7-1.8-3.3-3.8-4.7-5.8c-0.2-0.3-0.1-0.6,0.1-0.8c0.7-0.8,1.1-1.7,1.3-2.7c0.4-0.4,0.7-0.7,0.9-1.2c1.3-2,2.3-4.1,3-6.4
			c0.4-1.6,0.2-3.6,1-5c0.6-1,0.9-2.1,0.8-3.2c0.2-0.1,0.3-0.4,0.3-0.6c0-0.8,0.1-1.5,0.1-2.3c0-0.2,0-0.3,0-0.5c0,0.2,0-0.1,0-0.2
			c0-0.1,0-0.1,0-0.2"/>
	</g>
	<g>
		<path class="st0" d="M708.2,123.6c-11.7,0-21.3-4-28.8-11.8s-11.3-17.8-11.3-29.7c0-11.9,3.8-21.8,11.3-29.7
			c7.5-7.9,17.1-11.9,28.8-11.9c8.7,0,15.9,2.1,21.6,6.4c4.8,3.5,8.7,8.1,11.3,13.4c0.7,1.4,0.1,3-1.2,3.7c-0.1,0-0.1,0.1-0.2,0.1
			l-8.3,3.5c-1.3,0.6-2.9,0-3.5-1.3c-4.2-8.2-11.1-12.3-20.7-12.3c-6.5,0-12.2,2.6-17.1,8c-4.9,5.3-7.4,12-7.4,20.2
			c0,8.2,2.5,14.9,7.4,20.2s10.6,8,17.1,8c10,0,17.2-4.1,21.5-12.3c0.7-1.3,2.2-1.8,3.5-1.3l8,3.4c1.4,0.6,2.1,2.2,1.5,3.6
			c0,0.1-0.1,0.1-0.1,0.2c-2.7,5.3-6.7,9.8-11.6,13.3C724.2,121.4,716.9,123.6,708.2,123.6z"/>
	</g>
	<g>
		<path class="st0" d="M239.1,40.5c-14,0-21.2,3-26.2,8.9s-7.6,13.9-7.6,23.9v45c0,1.5,1.2,2.8,2.8,2.8h9.1c1.5,0,2.8-1.2,2.8-2.8
			V75.5c0-14.4,6.4-21.6,19.2-21.6c12.8,0,19.2,7.2,19.2,21.6v42.7c0,1.5,1.2,2.8,2.8,2.8h9.1c1.5,0,2.8-1.2,2.8-2.8v-45
			c0-10-2.5-18-7.6-23.9C260.3,43.5,253.1,40.5,239.1,40.5z"/>
	</g>
	<g>
		<path class="st0" d="M626.4,123.6c14.2,0,21.6-3,26.7-8.9s7.8-13.9,7.8-23.9v-45c0-1.5-1.2-2.8-2.8-2.8h-9.4
			c-1.5,0-2.8,1.2-2.8,2.8v42.7c0,14.4-6.5,21.6-19.6,21.6s-19.6-7.2-19.6-21.6V45.8c0-1.5-1.2-2.8-2.8-2.8h-9.4
			c-1.5,0-2.8,1.2-2.8,2.8c0,0,0,0,0,0v45c0,10,2.6,17.9,7.8,23.9C604.8,120.6,612.2,123.6,626.4,123.6z"/>
	</g>
	<g>
		<path class="st0" d="M784.1,40.5c-14,0-21.2,3-26.2,8.9s-7.6,13.9-7.6,23.9v45c0,1.5,1.2,2.8,2.8,2.8h9.1c1.5,0,2.8-1.2,2.8-2.8
			V75.5c0-14.4,6.4-21.6,19.2-21.6c12.8,0,19.2,7.2,19.2,21.6v42.7c0,1.5,1.2,2.8,2.8,2.8h9.1c1.5,0,2.8-1.2,2.8-2.8v-45
			c0-10-2.5-18-7.6-23.9C805.2,43.5,798.1,40.5,784.1,40.5z"/>
	</g>
	<g>
		<path class="st0" d="M751.9,16.2h11.2c1,0,1.7,0.8,1.7,1.7v101.4c0,1-0.8,1.7-1.7,1.7h-11.2c-1,0-1.7-0.8-1.7-1.7V17.9
			C750.2,16.9,751,16.2,751.9,16.2z"/>
	</g>
	<g>
		<path class="st0" d="M517,80.8h-9.1c-1.4,0-2.6,1.1-2.7,2.6c-0.3,6.7-3,13.1-7.7,17.9c-5,5.2-10.6,7.7-17.5,7.7
			c-7.1,0-10.5-4.7-10.5-12.7v-37c0-1.5,1.2-2.8,2.8-2.8h13.6c1.5,0,2.8-1.2,2.8-2.8v-7.9c0-1.5-1.2-2.8-2.8-2.8l0,0h-13.6
			c-1.5,0-2.8-1.2-2.8-2.7c0,0,0,0,0,0V18.9c0-1.5-1.2-2.8-2.8-2.8l0,0h-9.1c-1.5,0-2.8,1.2-2.8,2.8c0,0,0,0,0,0v21.4
			c0,1.5-1.2,2.8-2.8,2.8h-20.2c-8.8,0-16.6,2-23.2,6.4c-1.3,0.9-1.6,2.6-0.7,3.8c0.1,0.1,0.2,0.3,0.3,0.4l5.8,5.8
			c0.9,0.9,2.3,1.1,3.3,0.4c4.4-2.4,9.4-3.6,14.4-3.5H452c1.5,0,2.8,1.2,2.8,2.8v38.1c0,8,2.1,14.1,6.4,18.5s10.5,6.5,18.7,6.5
			c11.7,0,20.9-4,28.4-11.8c6.9-7.2,11-16.7,11.4-26.8C519.8,82.2,518.6,80.9,517,80.8C517,80.8,517,80.8,517,80.8z"/>
	</g>
</g>
</svg>
