<?xml version="1.0" encoding="UTF-8"?><svg id="Livello_2" xmlns="http://www.w3.org/2000/svg" viewBox="0 0 3237.71 473.12"><defs><style>.cls-1{fill:#0d607b;}</style></defs><g id="Livello_1-2"><g><path class="cls-1" d="M296.03,176.68c-10.74-10.74-22.83-20.02-35.92-27.6-26.22-15.17-56.2-23.19-86.7-23.19s-60.47,8.02-86.69,23.19c-13.11,7.58-25.19,16.86-35.93,27.6-10.74,10.74-20.02,22.83-27.6,35.93C8.02,238.83,0,268.81,0,299.3v173.41H61.29v-173.41c0-29.95,11.66-58.1,32.84-79.28,21.18-21.18,49.34-32.84,79.28-32.84s58.1,11.66,79.28,32.84c21.18,21.18,32.84,49.34,32.84,79.28v173.41h61.29v-173.41c0-30.49-8.02-60.47-23.19-86.69-7.58-13.11-16.86-25.19-27.6-35.93Z"/><path class="cls-1" d="M173.41,284.1c-24.97,0-45.29,20.32-45.29,45.29s20.32,45.29,45.29,45.29,45.29-20.32,45.29-45.29-20.32-45.29-45.29-45.29Z"/><path class="cls-1" d="M728.33,176.68c-10.74-10.74-22.83-20.02-35.92-27.6-26.22-15.17-56.2-23.19-86.7-23.19s-60.47,8.02-86.69,23.19c-13.11,7.58-25.19,16.86-35.93,27.6-10.74,10.74-20.02,22.83-27.6,35.93-15.17,26.22-23.19,56.2-23.19,86.7v173.41h61.29v-173.41c0-29.95,11.66-58.1,32.84-79.28,21.18-21.18,49.34-32.84,79.28-32.84s58.1,11.66,79.28,32.84c21.18,21.18,32.84,49.34,32.84,79.28v173.41h61.29v-173.41c0-30.49-8.02-60.47-23.19-86.69-7.58-13.11-16.86-25.19-27.6-35.93Z"/><path class="cls-1" d="M1320.12,212.6c-15.17,26.22-23.19,56.2-23.19,86.7v173.41h61.29v-173.41c0-29.94,11.66-58.1,32.84-79.28,17.13-17.13,38.83-28.03,62.34-31.58v-61.72c-24.57,2.4-48.4,10.01-69.75,22.36-13.1,7.58-25.19,16.86-35.93,27.6-10.74,10.74-20.02,22.82-27.6,35.92Z"/><path class="cls-1" d="M1834.89,176.74c-10.74-10.74-22.83-20.02-35.93-27.6-12.82-7.43-26.63-13.19-41.06-17.13-14.79-4.02-30.15-6.06-45.62-6.06-30.48,0-60.46,8.02-86.7,23.19-13.07,7.55-25.15,16.84-35.91,27.6-10.71,10.69-19.99,22.77-27.59,35.93-15.17,26.22-23.19,56.18-23.19,86.66s8.02,60.44,23.19,86.65c7.58,13.11,16.86,25.2,27.6,35.94,10.76,10.76,22.84,20.04,35.91,27.6,12.87,7.44,26.69,13.21,41.08,17.13,14.8,4.02,30.16,6.06,45.63,6.06,30.49,0,60.46-8.02,86.67-23.19,13.11-7.58,25.2-16.86,35.94-27.6,10.76-10.79,20.05-22.88,27.59-35.93,15.17-26.22,23.19-56.18,23.19-86.66s-8.02-60.44-23.19-86.65c-7.58-13.11-16.86-25.2-27.6-35.94Zm-43.32,201.84c-21.21,21.18-49.36,32.84-79.29,32.84s-58.11-11.66-79.28-32.83c-21.16-21.16-32.82-49.29-32.85-79.22,.03-30.01,11.69-58.14,32.85-79.3,21.17-21.17,49.33-32.83,79.28-32.83s58.08,11.65,79.27,32.82c21.18,21.21,32.84,49.35,32.84,79.24s-11.65,58.08-32.82,79.27Z"/><path class="cls-1" d="M2267.19,177.09c-10.74-10.74-22.83-20.02-35.92-27.6-26.22-15.17-56.2-23.19-86.7-23.19s-60.47,8.02-86.69,23.19c-13.1,7.58-25.19,16.86-35.93,27.6-10.74,10.74-20.02,22.82-27.6,35.92-15.17,26.22-23.19,56.2-23.19,86.7v173.41h61.29v-173.41c0-29.95,11.66-58.1,32.84-79.28,21.18-21.18,49.34-32.84,79.28-32.84s58.1,11.66,79.28,32.84c21.18,21.18,32.84,49.34,32.84,79.29v173.41h61.29v-173.41c0-30.49-8.02-60.47-23.19-86.69-7.58-13.11-16.86-25.19-27.6-35.93Z"/><path class="cls-1" d="M2601.01,176.68c-10.74,10.74-20.02,22.83-27.6,35.92-15.17,26.22-23.19,56.2-23.19,86.7s8.02,60.47,23.19,86.69c7.58,13.1,16.86,25.19,27.6,35.93,10.74,10.74,22.82,20.02,35.92,27.6,26.22,15.17,56.2,23.19,86.7,23.19h80.48v-61.29h-80.48c-29.95,0-58.1-11.66-79.28-32.84-21.18-21.18-32.84-49.34-32.84-79.28s11.66-58.1,32.84-79.28c21.18-21.18,49.34-32.84,79.29-32.84h80.48v-61.29h-80.48c-30.49,0-60.47,8.02-86.69,23.19-13.11,7.58-25.19,16.86-35.93,27.6Z"/><path class="cls-1" d="M3186.93,176.71c-10.74-10.74-22.83-20.02-35.93-27.6-12.82-7.43-26.63-13.19-41.06-17.13-14.79-4.02-30.15-6.06-45.62-6.06-30.48,0-60.46,8.02-86.7,23.19-13.07,7.55-25.15,16.84-35.91,27.6-10.71,10.69-19.99,22.77-27.59,35.93-15.17,26.22-23.19,56.18-23.19,86.66s8.02,60.44,23.19,86.65c7.58,13.11,16.86,25.2,27.6,35.94,10.76,10.76,22.84,20.04,35.91,27.6,12.87,7.44,26.69,13.21,41.08,17.13,14.8,4.02,30.16,6.06,45.63,6.06,30.49,0,60.46-8.02,86.67-23.19,13.11-7.58,25.2-16.86,35.94-27.6,10.76-10.79,20.05-22.88,27.59-35.93,15.17-26.22,23.19-56.18,23.19-86.66s-8.02-60.44-23.19-86.65c-7.58-13.11-16.86-25.2-27.6-35.94Zm-43.32,201.84c-21.21,21.18-49.36,32.84-79.29,32.84s-58.11-11.66-79.28-32.83c-21.16-21.16-32.82-49.29-32.85-79.22,.03-30.01,11.69-58.14,32.85-79.3,21.17-21.17,49.33-32.83,79.28-32.83s58.08,11.65,79.27,32.82c21.18,21.21,32.84,49.35,32.84,79.24s-11.65,58.08-32.82,79.27Z"/><rect class="cls-1" x="2403.46" y="152.97" width="61.29" height="319.74"/><path class="cls-1" d="M1211.56,286.46l-.02-.4c-.05-1.21-.1-2.41-.1-3.62V0h-63.3V162.44l-25.29-14.31c-12.33-6.97-25.51-12.39-39.17-16.11-14.81-4.02-30.16-6.06-45.64-6.06-30.49,0-60.47,8.03-86.69,23.21-13.12,7.58-25.21,16.86-35.94,27.6-10.71,10.7-20,22.79-27.61,35.92-15.14,26.17-23.16,56.13-23.18,86.66,.02,30.49,8.04,60.47,23.19,86.66,7.64,13.15,16.92,25.24,27.59,35.91,10.74,10.73,22.83,20.02,35.93,27.59,13.01,7.5,26.82,13.26,41.06,17.13,14.82,4.03,30.18,6.07,45.65,6.07,30.49,0,60.47-8.02,86.67-23.19,13.17-7.61,25.25-16.89,35.93-27.59,10.74-10.74,20.03-22.82,27.61-35.93,15.17-26.24,23.19-56.21,23.19-86.67,0-1.68,.04-3.4,.09-5.14,.07-2.72,.14-5.28,.03-7.73Zm-155.59,123.54c-1.34,.22-2.69,.41-4.04,.58-.02,0-.04,0-.06,0-1.28,.15-2.57,.29-3.87,.4-.69,.06-1.38,.11-2.07,.16-.91,.06-1.82,.13-2.73,.17-.16,0-.33,.02-.49,.03-1.32,.05-2.64,.07-3.96,.08-.21,0-.42,.02-.63,.02-.02,0-.04,0-.06,0-.03,0-.05,0-.08,0-5.77,0-11.47-.44-17.06-1.28-.26-.04-.51-.09-.77-.13-1.54-.24-3.08-.51-4.6-.81-.99-.2-1.96-.43-2.94-.66-.74-.17-1.48-.32-2.21-.51-1.26-.32-2.51-.66-3.75-1.01-47.3-13.49-81.91-56.58-81.91-107.69s37.49-97.71,87.77-109.19c.08-.02,.16-.03,.25-.05,1.34-.3,2.68-.59,4.03-.85,1.5-.29,3-.54,4.52-.77,.61-.09,1.24-.15,1.85-.23,1.19-.16,2.38-.32,3.58-.44,1.44-.14,2.89-.24,4.35-.33,.42-.03,.83-.07,1.25-.09,1.9-.09,3.8-.14,5.71-.14,.01,0,.02,0,.04,0s.02,0,.04,0c.96,0,1.91,.05,2.86,.07,.9,.02,1.8,.02,2.69,.07,60.04,2.86,107.83,51.89,107.83,111.96,0,55.9-41.4,102.19-95.53,110.66Z"/><path class="cls-1" d="M2434.1,31.13c-24.97,0-45.29,20.32-45.29,45.29s20.32,45.29,45.29,45.29,45.29-20.32,45.29-45.29-20.32-45.29-45.29-45.29Z"/></g></g></svg>