<svg xmlns="http://www.w3.org/2000/svg" width="24" height="24" viewBox="0 0 24 24"><g transform="translate(-300 -572)"><path d="M11.11,7.78,8.89,8.89ZM8.89,8.89,6.67,7.78Zm0,0v0Zm8.89-4.45L15.56,5.55Zm0,0L15.56,3.33Zm0,0v0ZM11.11,1.11,8.89,0,6.67,1.11ZM0,4.44,2.22,3.33Zm0,0L2.22,5.55Zm0,0v0ZM8.89,20,6.67,18.89Zm0,0,2.22-1.11Zm0,0v0ZM2.22,16.67,0,15.56V12.78Zm13.34,0,2.22-1.11V12.78" transform="translate(303.11 574)" fill="none" stroke="#4b55c8" stroke-linecap="round" stroke-linejoin="round" stroke-width="1.5"/><path d="M0,0H24V24H0Z" transform="translate(300 572)" fill="none" opacity="0"/></g></svg>