<svg xmlns="http://www.w3.org/2000/svg" width="24" height="24" viewBox="0 0 24 24"><g transform="translate(-172 -636)"><path d="M10.26,5.13A5.13,5.13,0,1,1,5.13,0,5.13,5.13,0,0,1,10.26,5.13Z" transform="translate(182.46 638)" fill="none" stroke="#4b55c8" stroke-width="1.5"/><path d="M6.16,3.08A3.08,3.08,0,1,1,3.08,0,3.08,3.08,0,0,1,6.16,3.08Z" transform="translate(175.28 649.28)" fill="none" stroke="#4b55c8" stroke-width="1.5"/><path d="M5.12,2.56A2.56,2.56,0,1,1,2.56,0,2.56,2.56,0,0,1,5.12,2.56Z" transform="translate(186.06 652.88)" fill="none" stroke="#4b55c8" stroke-width="1.5"/><path d="M0,0H24V24H0Z" transform="translate(172 636)" fill="none" opacity="0"/><path d="M0,0H24V24H0Z" transform="translate(172 636)" fill="none" opacity="0"/></g></svg>