<svg xmlns="http://www.w3.org/2000/svg" width="24" height="24" viewBox="0 0 24 24"><g transform="translate(-172 -578)"><path d="M8.985,1.545a5.261,5.261,0,1,1-7.44,0A5.251,5.251,0,0,1,8.985,1.545Z" transform="translate(178.735 586.145)" fill="none" stroke="#4b55c8" stroke-linecap="round" stroke-linejoin="round" stroke-width="1.509"/><path d="M1.59,0,0,1.59" transform="translate(182.41 591.41)" fill="none" stroke="#4b55c8" stroke-linecap="round" stroke-linejoin="round" stroke-width="1.509"/><path d="M.676.12a.4.4,0,0,1,0,.56.4.4,0,0,1-.56,0,.4.4,0,0,1,0-.56A.387.387,0,0,1,.676.12Z" transform="translate(190.394 584.22)" fill="none" stroke="#4b55c8" stroke-width="1"/><path d="M.676.12a.4.4,0,0,1,0,.56.4.4,0,0,1-.56,0,.4.4,0,0,1,0-.56A.387.387,0,0,1,.676.12Z" transform="translate(190.394 584.22)" fill="none" stroke="#4b55c8" stroke-linecap="round" stroke-linejoin="round" stroke-width="1.5"/><path d="M.672.12a.4.4,0,0,1,0,.56.4.4,0,0,1-.56,0,.4.4,0,0,1,0-.56A.387.387,0,0,1,.672.12Z" transform="translate(176.818 597.8)" fill="none" stroke="#4b55c8" stroke-width="1"/><path d="M.672.12a.4.4,0,0,1,0,.56.4.4,0,0,1-.56,0,.4.4,0,0,1,0-.56A.387.387,0,0,1,.672.12Z" transform="translate(176.818 597.8)" fill="none" stroke="#4b55c8" stroke-linecap="round" stroke-linejoin="round" stroke-width="1.5"/><path d="M.676.12a.4.4,0,0,1,0,.56.4.4,0,0,1-.56,0,.4.4,0,0,1,0-.56A.387.387,0,0,1,.676.12Z" transform="translate(193.204 591.01)" fill="none" stroke="#4b55c8" stroke-width="1"/><path d="M.676.12a.4.4,0,0,1,0,.56.4.4,0,0,1-.56,0,.4.4,0,0,1,0-.56A.387.387,0,0,1,.676.12Z" transform="translate(193.204 591.01)" fill="none" stroke="#4b55c8" stroke-linecap="round" stroke-linejoin="round" stroke-width="1.5"/><path d="M.673.12a.4.4,0,0,1,0,.56.4.4,0,0,1-.56,0,.4.4,0,0,1,0-.56A.387.387,0,0,1,.673.12Z" transform="translate(173.997 591.01)" fill="none" stroke="#4b55c8" stroke-width="1"/><path d="M.673.12a.4.4,0,0,1,0,.56.4.4,0,0,1-.56,0,.4.4,0,0,1,0-.56A.387.387,0,0,1,.673.12Z" transform="translate(173.997 591.01)" fill="none" stroke="#4b55c8" stroke-linecap="round" stroke-linejoin="round" stroke-width="1.5"/><path d="M.676.12a.4.4,0,0,1,0,.56.4.4,0,0,1-.56,0,.4.4,0,0,1,0-.56A.387.387,0,0,1,.676.12Z" transform="translate(190.394 597.8)" fill="none" stroke="#4b55c8" stroke-width="1"/><path d="M.676.12a.4.4,0,0,1,0,.56.4.4,0,0,1-.56,0,.4.4,0,0,1,0-.56A.387.387,0,0,1,.676.12Z" transform="translate(190.394 597.8)" fill="none" stroke="#4b55c8" stroke-linecap="round" stroke-linejoin="round" stroke-width="1.5"/><path d="M.672.12a.4.4,0,0,1,0,.56.4.4,0,0,1-.56,0,.4.4,0,0,1,0-.56A.387.387,0,0,1,.672.12Z" transform="translate(176.818 584.22)" fill="none" stroke="#4b55c8" stroke-width="1"/><path d="M.672.12a.4.4,0,0,1,0,.56.4.4,0,0,1-.56,0,.4.4,0,0,1,0-.56A.387.387,0,0,1,.672.12Z" transform="translate(176.818 584.22)" fill="none" stroke="#4b55c8" stroke-linecap="round" stroke-linejoin="round" stroke-width="1.5"/><path d="M.676.116a.4.4,0,0,1,0,.56.4.4,0,1,1,0-.56Z" transform="translate(183.604 581.404)" fill="none" stroke="#4b55c8" stroke-width="1"/><path d="M.676.116a.4.4,0,0,1,0,.56.4.4,0,1,1,0-.56Z" transform="translate(183.604 581.404)" fill="none" stroke="#4b55c8" stroke-linecap="round" stroke-linejoin="round" stroke-width="1.5"/><path d="M0,0H24V24H0Z" transform="translate(172 578)" fill="none" opacity="0"/></g></svg>