<svg xmlns="http://www.w3.org/2000/svg" width="24" height="24" viewBox="0 0 24 24">
  <g id="vuesax_linear_devices" data-name="vuesax/linear/devices" transform="translate(-172 -578)">
    <g id="devices">
      <path id="Vector" d="M8.985,1.545a5.261,5.261,0,1,1-7.44,0A5.251,5.251,0,0,1,8.985,1.545Z" transform="translate(178.735 586.145)" fill="none" stroke="#4b55c8" stroke-linecap="round" stroke-linejoin="round" stroke-width="1.509"/>
      <path id="Vector-2" data-name="Vector" d="M1.59,0,0,1.59" transform="translate(182.41 591.41)" fill="none" stroke="#4b55c8" stroke-linecap="round" stroke-linejoin="round" stroke-width="1.509"/>
      <path id="Vector-3" data-name="Vector" d="M.676.12a.4.4,0,0,1,0,.56.4.4,0,0,1-.56,0,.4.4,0,0,1,0-.56A.387.387,0,0,1,.676.12Z" transform="translate(190.394 584.22)" fill="none" stroke="#4b55c8" stroke-width="1"/>
      <path id="Vector-4" data-name="Vector" d="M.676.12a.4.4,0,0,1,0,.56.4.4,0,0,1-.56,0,.4.4,0,0,1,0-.56A.387.387,0,0,1,.676.12Z" transform="translate(190.394 584.22)" fill="none" stroke="#4b55c8" stroke-linecap="round" stroke-linejoin="round" stroke-width="1.5"/>
      <path id="Vector-5" data-name="Vector" d="M.672.12a.4.4,0,0,1,0,.56.4.4,0,0,1-.56,0,.4.4,0,0,1,0-.56A.387.387,0,0,1,.672.12Z" transform="translate(176.818 597.8)" fill="none" stroke="#4b55c8" stroke-width="1"/>
      <path id="Vector-6" data-name="Vector" d="M.672.12a.4.4,0,0,1,0,.56.4.4,0,0,1-.56,0,.4.4,0,0,1,0-.56A.387.387,0,0,1,.672.12Z" transform="translate(176.818 597.8)" fill="none" stroke="#4b55c8" stroke-linecap="round" stroke-linejoin="round" stroke-width="1.5"/>
      <path id="Vector-7" data-name="Vector" d="M.676.12a.4.4,0,0,1,0,.56.4.4,0,0,1-.56,0,.4.4,0,0,1,0-.56A.387.387,0,0,1,.676.12Z" transform="translate(193.204 591.01)" fill="none" stroke="#4b55c8" stroke-width="1"/>
      <path id="Vector-8" data-name="Vector" d="M.676.12a.4.4,0,0,1,0,.56.4.4,0,0,1-.56,0,.4.4,0,0,1,0-.56A.387.387,0,0,1,.676.12Z" transform="translate(193.204 591.01)" fill="none" stroke="#4b55c8" stroke-linecap="round" stroke-linejoin="round" stroke-width="1.5"/>
      <path id="Vector-9" data-name="Vector" d="M.673.12a.4.4,0,0,1,0,.56.4.4,0,0,1-.56,0,.4.4,0,0,1,0-.56A.387.387,0,0,1,.673.12Z" transform="translate(173.997 591.01)" fill="none" stroke="#4b55c8" stroke-width="1"/>
      <path id="Vector-10" data-name="Vector" d="M.673.12a.4.4,0,0,1,0,.56.4.4,0,0,1-.56,0,.4.4,0,0,1,0-.56A.387.387,0,0,1,.673.12Z" transform="translate(173.997 591.01)" fill="none" stroke="#4b55c8" stroke-linecap="round" stroke-linejoin="round" stroke-width="1.5"/>
      <path id="Vector-11" data-name="Vector" d="M.676.12a.4.4,0,0,1,0,.56.4.4,0,0,1-.56,0,.4.4,0,0,1,0-.56A.387.387,0,0,1,.676.12Z" transform="translate(190.394 597.8)" fill="none" stroke="#4b55c8" stroke-width="1"/>
      <path id="Vector-12" data-name="Vector" d="M.676.12a.4.4,0,0,1,0,.56.4.4,0,0,1-.56,0,.4.4,0,0,1,0-.56A.387.387,0,0,1,.676.12Z" transform="translate(190.394 597.8)" fill="none" stroke="#4b55c8" stroke-linecap="round" stroke-linejoin="round" stroke-width="1.5"/>
      <path id="Vector-13" data-name="Vector" d="M.672.12a.4.4,0,0,1,0,.56.4.4,0,0,1-.56,0,.4.4,0,0,1,0-.56A.387.387,0,0,1,.672.12Z" transform="translate(176.818 584.22)" fill="none" stroke="#4b55c8" stroke-width="1"/>
      <path id="Vector-14" data-name="Vector" d="M.672.12a.4.4,0,0,1,0,.56.4.4,0,0,1-.56,0,.4.4,0,0,1,0-.56A.387.387,0,0,1,.672.12Z" transform="translate(176.818 584.22)" fill="none" stroke="#4b55c8" stroke-linecap="round" stroke-linejoin="round" stroke-width="1.5"/>
      <path id="Vector-15" data-name="Vector" d="M.676.116a.4.4,0,0,1,0,.56.4.4,0,1,1,0-.56Z" transform="translate(183.604 581.404)" fill="none" stroke="#4b55c8" stroke-width="1"/>
      <path id="Vector-16" data-name="Vector" d="M.676.116a.4.4,0,0,1,0,.56.4.4,0,1,1,0-.56Z" transform="translate(183.604 581.404)" fill="none" stroke="#4b55c8" stroke-linecap="round" stroke-linejoin="round" stroke-width="1.5"/>
      <path id="Vector-17" data-name="Vector" d="M0,0H24V24H0Z" transform="translate(172 578)" fill="none" opacity="0"/>
    </g>
  </g>
</svg>
