<svg id="Logo" xmlns="http://www.w3.org/2000/svg" width="177.989" height="45.002" viewBox="0 0 177.989 45.002">
  <g id="Group_3875" data-name="Group 3875">
    <path id="Path_2999" data-name="Path 2999" d="M566.036,406.3a10.394,10.394,0,0,1-3.081-7.412,10.674,10.674,0,0,1,3.081-7.455,10.429,10.429,0,0,1,14.8,0,10.617,10.617,0,0,1,3.06,7.455v7.994a2.359,2.359,0,0,1-.712,1.724,2.233,2.233,0,0,1-1.723.733,2.256,2.256,0,0,1-2.262-1.7,10.225,10.225,0,0,1-5.775,1.745A10.487,10.487,0,0,1,566.036,406.3Zm11.441-3.383a5.688,5.688,0,0,0-4.051-9.717,5.7,5.7,0,0,0,0,11.4A5.72,5.72,0,0,0,577.477,402.918Z" transform="translate(-562.955 -380.747)" fill="#fff"/>
    <path id="Path_3000" data-name="Path 3000" d="M599.388,408.817a2.182,2.182,0,0,1-.754-1.659v-8.252a10.183,10.183,0,0,1,2.951-7.218,9.8,9.8,0,0,1,7.132-2.973,10.189,10.189,0,0,1,10.235,10.191v8.252a2.225,2.225,0,0,1-.668,1.659,2.291,2.291,0,0,1-1.681.689,2.34,2.34,0,0,1-1.7-.689,2.132,2.132,0,0,1-.733-1.659v-8.231a5.519,5.519,0,0,0-5.451-5.408,5.271,5.271,0,0,0-3.771,1.551,5.518,5.518,0,0,0-1.508,3.835v8.252a2.225,2.225,0,0,1-.668,1.659,2.366,2.366,0,0,1-1.659.689A2.444,2.444,0,0,1,599.388,408.817Z" transform="translate(-575.191 -380.871)" fill="#fff"/>
    <path id="Path_3001" data-name="Path 3001" d="M636.465,402.331a10.34,10.34,0,0,1-3.1-7.412,10.513,10.513,0,0,1,3.1-7.455,10.392,10.392,0,0,1,7.412-3.082c2.909,0,4.589.9,5.731,2.8v-7.929a2.442,2.442,0,0,1,.668-1.767,2.313,2.313,0,0,1,1.7-.711,2.359,2.359,0,0,1,1.723.711,2.53,2.53,0,0,1,.69,1.767v15.772a10.288,10.288,0,0,1-3.124,7.326,10.457,10.457,0,0,1-14.8-.022Zm11.484-3.383a5.7,5.7,0,0,0-.022-8.058,5.749,5.749,0,0,0-8.08,0,5.71,5.71,0,0,0,4.03,9.739A5.733,5.733,0,0,0,647.949,398.948Z" transform="translate(-587.101 -376.777)" fill="#fff"/>
    <path id="Path_3002" data-name="Path 3002" d="M669.983,408.817a2.175,2.175,0,0,1-.733-1.681v-7.39a11.057,11.057,0,0,1,3.254-7.8,10.937,10.937,0,0,1,7.756-3.232h.043a2.269,2.269,0,0,1,2.478,2.37,2.41,2.41,0,0,1-.711,1.7,2.531,2.531,0,0,1-1.767.689H680.2a6.3,6.3,0,0,0-6.162,6.119v7.542a2.317,2.317,0,0,1-2.327,2.37A2.462,2.462,0,0,1,669.983,408.817Z" transform="translate(-599.409 -380.871)" fill="#fff"/>
    <path id="Path_3003" data-name="Path 3003" d="M726.417,408.817a2.183,2.183,0,0,1-.754-1.659v-8.252a10.184,10.184,0,0,1,2.952-7.218,9.8,9.8,0,0,1,7.132-2.973,10.188,10.188,0,0,1,10.235,10.191v8.252a2.227,2.227,0,0,1-.668,1.659,2.292,2.292,0,0,1-1.681.689,2.34,2.34,0,0,1-1.7-.689,2.132,2.132,0,0,1-.733-1.659v-8.231a5.518,5.518,0,0,0-5.451-5.408,5.269,5.269,0,0,0-3.77,1.551,5.519,5.519,0,0,0-1.509,3.835v8.252a2.227,2.227,0,0,1-.668,1.659,2.367,2.367,0,0,1-1.659.689A2.444,2.444,0,0,1,726.417,408.817Z" transform="translate(-618.757 -380.871)" fill="#fff"/>
    <path id="Path_3004" data-name="Path 3004" d="M761.307,408.715a2.175,2.175,0,0,1-.733-1.681V390.81a2.367,2.367,0,0,1,.733-1.681,2.46,2.46,0,0,1,1.723-.712,2.3,2.3,0,0,1,1.681.712,2.5,2.5,0,0,1,.668,1.681v16.224a2.353,2.353,0,0,1-2.37,2.37A2.34,2.34,0,0,1,761.307,408.715Z" transform="translate(-630.729 -380.769)" fill="#fff"/>
    <path id="Path_3005" data-name="Path 3005" d="M774.837,406.366a10.206,10.206,0,0,1-3.146-7.39,10.595,10.595,0,0,1,10.688-10.622,10.146,10.146,0,0,1,7.2,2.823,2.733,2.733,0,0,1,.861,1.982,2.161,2.161,0,0,1-.861,1.745,2.616,2.616,0,0,1-1.551.625,2.573,2.573,0,0,1-1.358-.431c-.215-.129-.6-.409-1.142-.819a5.754,5.754,0,0,0-3.6-1.056,5.476,5.476,0,0,0-3.792,1.81,5.625,5.625,0,0,0,.021,7.735,5.354,5.354,0,0,0,3.943,1.767,5.426,5.426,0,0,0,3.426-1.056,10.611,10.611,0,0,1,1.594-1.056,2.307,2.307,0,0,1,.926-.194,2.507,2.507,0,0,1,1.573.647,2.193,2.193,0,0,1,.819,1.7,2.8,2.8,0,0,1-.861,1.982,10.146,10.146,0,0,1-7.2,2.823A10.709,10.709,0,0,1,774.837,406.366Z" transform="translate(-634.542 -380.747)" fill="#fff"/>
    <g id="Group_3874" data-name="Group 3874" transform="translate(83.372 7.606)">
      <path id="Path_3006" data-name="Path 3006" d="M692.947,406.3a10.34,10.34,0,0,1-3.1-7.412,10.513,10.513,0,0,1,3.1-7.455,10.392,10.392,0,0,1,7.412-3.082,10.548,10.548,0,0,1,7.434,3.082,10.677,10.677,0,0,1,3.081,7.455,10.394,10.394,0,0,1-3.081,7.412,10.551,10.551,0,0,1-7.434,3.081A10.394,10.394,0,0,1,692.947,406.3Zm11.484-3.383a5.7,5.7,0,0,0-.022-8.058,5.748,5.748,0,0,0-8.08,0,5.71,5.71,0,0,0,4.029,9.739A5.733,5.733,0,0,0,704.431,402.918Z" transform="translate(-689.844 -388.353)" fill="#fff"/>
      <path id="Path_3007" data-name="Path 3007" d="M804.945,406.3a10.34,10.34,0,0,1-3.1-7.412,10.513,10.513,0,0,1,3.1-7.455,10.391,10.391,0,0,1,7.412-3.082,10.548,10.548,0,0,1,7.434,3.082,10.677,10.677,0,0,1,3.081,7.455,10.394,10.394,0,0,1-3.081,7.412,10.551,10.551,0,0,1-7.434,3.081A10.394,10.394,0,0,1,804.945,406.3Zm11.485-3.383a5.7,5.7,0,0,0-.022-8.058,5.748,5.748,0,0,0-8.08,0,5.71,5.71,0,0,0,4.029,9.739A5.734,5.734,0,0,0,816.429,402.918Z" transform="translate(-728.254 -388.353)" fill="#fff"/>
    </g>
  </g>
  <g id="Group_3876" data-name="Group 3876" transform="translate(101.143 29.5)">
    <path id="Path_3008" data-name="Path 3008" d="M746.333,437.177c-11.57,0-22.343-4.287-28.82-11.467a2.417,2.417,0,0,1,3.589-3.237c5.574,6.18,15.007,9.87,25.23,9.87s19.656-3.69,25.231-9.87a2.417,2.417,0,1,1,3.589,3.237C768.677,432.89,757.9,437.177,746.333,437.177Z" transform="translate(-716.892 -421.675)" fill="#a0d25f"/>
  </g>
</svg>
