<svg id="vuesax_linear_more" data-name="vuesax/linear/more" xmlns="http://www.w3.org/2000/svg" width="24" height="24" viewBox="0 0 24 24">
  <g id="more">
    <path id="Vector" d="M2,0A2,2,0,1,0,4,2,2.006,2.006,0,0,0,2,0Z" transform="translate(3 10)" fill="none" stroke="#fff" stroke-width="1.5"/>
    <path id="Vector-2" data-name="Vector" d="M2,0A2,2,0,1,0,4,2,2.006,2.006,0,0,0,2,0Z" transform="translate(17 10)" fill="none" stroke="#fff" stroke-width="1.5"/>
    <path id="Vector-3" data-name="Vector" d="M2,0A2,2,0,1,0,4,2,2.006,2.006,0,0,0,2,0Z" transform="translate(10 10)" fill="none" stroke="#fff" stroke-width="1.5"/>
    <path id="Vector-4" data-name="Vector" d="M0,0H24V24H0Z" fill="none" opacity="0"/>
  </g>
</svg>
